<?xml version="1.0" encoding="UTF-8" standalone="no"?>
<!-- Created with Inkscape (http://www.inkscape.org/) -->

<svg
   width="210mm"
   height="297mm"
   viewBox="0 0 210 297"
   version="1.1"
   id="svg741"
   inkscape:version="1.2.2 (b0a8486541, 2022-12-01)"
   sodipodi:docname="logo.svg"
   inkscape:export-filename="logo.png"
   inkscape:export-xdpi="96"
   inkscape:export-ydpi="96"
   xmlns:inkscape="http://www.inkscape.org/namespaces/inkscape"
   xmlns:sodipodi="http://sodipodi.sourceforge.net/DTD/sodipodi-0.dtd"
   xmlns="http://www.w3.org/2000/svg"
   xmlns:svg="http://www.w3.org/2000/svg">
  <sodipodi:namedview
     id="namedview743"
     pagecolor="#505050"
     bordercolor="#eeeeee"
     borderopacity="1"
     inkscape:showpageshadow="0"
     inkscape:pageopacity="0"
     inkscape:pagecheckerboard="0"
     inkscape:deskcolor="#505050"
     inkscape:document-units="mm"
     showgrid="false"
     inkscape:zoom="0.69664703"
     inkscape:cx="78.231871"
     inkscape:cy="561.97757"
     inkscape:window-width="1880"
     inkscape:window-height="1014"
     inkscape:window-x="0"
     inkscape:window-y="0"
     inkscape:window-maximized="1"
     inkscape:current-layer="layer2" />
  <defs
     id="defs738" />
  <g
     inkscape:groupmode="layer"
     id="layer2"
     inkscape:label="Ebene 2">
    <rect
       style="fill:#e6e6e6;fill-opacity:1;stroke:none;stroke-width:3.25589;stroke-linecap:round;stroke-linejoin:miter;stroke-miterlimit:4;stroke-dasharray:none;stroke-opacity:1;paint-order:normal"
       id="rect874"
       width="100"
       height="100"
       x="34.818039"
       y="47.567894" />
  </g>
  <g
     inkscape:label="Ebene 1"
     inkscape:groupmode="layer"
     id="layer1">
    <g
       id="g897"
       transform="translate(15.50485,68.511529)">
      <g
         id="g3510-0"
         transform="translate(-6.9324593,-204.3869)">
        <path
           style="fill:#28608b;fill-opacity:1;fill-rule:nonzero;stroke:none;stroke-width:0.354015;stroke-miterlimit:4;stroke-dasharray:none;stroke-opacity:1"
           d="m 165.24023,838.42578 -11.92382,24.82227 12.92773,-0.0176 c 0,0 4.03092,0.46657 5.98438,3.49023 2.9254,3.69449 0.83593,8.39258 0.83593,8.39258 l -1.5039,3.14453 h 19.28906 l 15.43164,-32.29297 c 0,0 0,-0.002 0,-0.002 0.002,-0.005 1.07296,-2.72011 -0.33984,-4.9668 -1.59563,-2.54033 -4.54102,-2.57031 -4.54102,-2.57031 z"
           transform="scale(0.26458333)"
           id="path78-8-9-4-2-1-9-14-1-2-8-5-1-1-3-5"
           inkscape:connector-curvature="0" />
        <path
           style="fill:#4f97bd;fill-opacity:1;fill-rule:nonzero;stroke:none;stroke-width:3;stroke-miterlimit:4;stroke-dasharray:none;stroke-opacity:1"
           d="m 129.74609,865.98633 -15.30468,31.85742 c 0,0.004 -0.006,0.0195 -0.006,0.0195 -0.40904,0.7513 -0.64258,1.65967 -0.64258,2.57031 0,2.91999 2.38307,5.38672 5.31836,5.38672 h 10.85937 l 8.31641,-17.33789 25.36719,-0.0332 7.13086,-14.92383 c 0,0 1.07432,-2.71794 -0.33985,-4.9668 -1.59563,-2.54033 -4.54101,-2.57226 -4.54101,-2.57226 z"
           transform="scale(0.26458333)"
           id="path78-8-9-4-2-1-9-14-1-2-8-5-0-7-47"
           inkscape:connector-curvature="0" />
        <path
           inkscape:connector-curvature="0"
           id="path78-8-9-4-2-1-9-14-1-2-8-8-8-2"
           style="fill:#83cfec;fill-opacity:1;fill-rule:nonzero;stroke:none;stroke-width:0.79375;stroke-miterlimit:4;stroke-dasharray:none;stroke-opacity:1"
           d="m 47.921086,237.80643 -4.082827,8.54484 h -9.589358 c -0.776628,0 -1.406942,-0.65252 -1.406942,-1.4251 0,-0.24094 0.06196,-0.48148 0.170185,-0.68026 0,0 0.0015,-0.004 0.0015,-0.005 l 4.049023,-8.42891 h 9.566962 c 0,0 0.77931,0.008 1.201487,0.68013 0.374165,0.59501 0.08999,1.3145 0.08999,1.3145" />
      </g>
      <g
         inkscape:export-ydpi="96"
         inkscape:export-xdpi="96"
         style="fill:#727879;fill-opacity:1;stroke:none;stroke-width:1.64644;stroke-miterlimit:4;stroke-dasharray:none;stroke-opacity:1"
         transform="matrix(0.48210097,0,0,0.48210097,289.93477,11.868405)"
         id="g6416-4-76-3-1-9-0">
        <g
           id="g60-3-7-4-0-6-1-54-9-6-2-4"
           transform="matrix(0.29621271,0,0,-0.29621271,-458.19125,29.843289)"
           style="fill:#28608b;fill-opacity:1;stroke:none;stroke-width:5.5583;stroke-linejoin:round;stroke-miterlimit:4;stroke-dasharray:none;stroke-opacity:1">
          <path
             d="m 0,0 -65.49,-45.896 -43.771,0.091 L -87.673,0 Z"
             style="fill:#28608b;fill-opacity:1;fill-rule:nonzero;stroke:none;stroke-width:5.5583;stroke-linejoin:round;stroke-miterlimit:4;stroke-dasharray:none;stroke-opacity:1"
             id="path62-5-7-5-3-2-7-82-6-5-7-0"
             inkscape:connector-curvature="0" />
        </g>
        <g
           id="g64-0-1-0-8-2-0-7-9-2-1-1"
           transform="matrix(0.29621271,0,0,-0.29621271,-444.96447,43.46908)"
           style="fill:#727879;fill-opacity:1;stroke:none;stroke-width:5.5583;stroke-linejoin:round;stroke-miterlimit:4;stroke-dasharray:none;stroke-opacity:1">
          <path
             d="M 0,0 53.881,38.848 32.448,0 Z"
             style="fill:#28608b;fill-opacity:1;fill-rule:nonzero;stroke:none;stroke-width:5.5583;stroke-linejoin:round;stroke-miterlimit:4;stroke-dasharray:none;stroke-opacity:1"
             id="path66-4-66-6-5-6-7-7-8-3-5-6"
             inkscape:connector-curvature="0" />
        </g>
        <g
           id="g80-7-4-5-3-2-4-06-7-5-5-8"
           transform="matrix(0.29621271,0,0,-0.29621271,-402.18115,29.843289)"
           style="fill:#727879;fill-opacity:1;stroke:none;stroke-width:5.5583;stroke-linejoin:round;stroke-miterlimit:4;stroke-dasharray:none;stroke-opacity:1">
          <path
             d="M 0,0 H 51.751 L -0.131,-110 h -52.103 z"
             style="fill:#727879;fill-opacity:1;fill-rule:nonzero;stroke:none;stroke-width:5.5583;stroke-linejoin:round;stroke-miterlimit:4;stroke-dasharray:none;stroke-opacity:1"
             id="path82-5-86-5-6-9-4-5-0-9-3-4"
             inkscape:connector-curvature="0" />
        </g>
        <g
           id="g84-5-5-6-4-5-8-01-3-8-7-6"
           transform="matrix(0.29621271,0,0,-0.29621271,-362.20947,21.312718)"
           style="fill:#727879;fill-opacity:1;stroke:none;stroke-width:5.5583;stroke-linejoin:round;stroke-miterlimit:4;stroke-dasharray:none;stroke-opacity:1">
          <path
             d="m 0,0 -66.006,-138.799 h -52.103 l 58.583,124 h -87.317 l -58.509,-124 h -52.103 l 82.181,172 H -22.6 c 0,0 13.079,0.449 20.2,-10.354 C 5.081,11.496 0,0 0,0"
             style="fill:#727879;fill-opacity:1;fill-rule:nonzero;stroke:none;stroke-width:5.5583;stroke-linejoin:round;stroke-miterlimit:4;stroke-dasharray:none;stroke-opacity:1"
             id="path86-6-2-2-5-4-1-8-9-8-3-1"
             inkscape:connector-curvature="0" />
        </g>
        <g
           id="g88-0-2-1-4-0-6-6-1-2-7-9"
           transform="matrix(0.29621271,0,0,-0.29621271,-463.59828,11.478109)"
           style="fill:#727879;fill-opacity:1;stroke:none;stroke-width:5.5583;stroke-linejoin:round;stroke-miterlimit:4;stroke-dasharray:none;stroke-opacity:1">
          <path
             d="M 0,0 -21.433,-48 H -79.327 L -79.338,-48.105 -137.839,-172 h -51.202 l 69.158,146.287 c 0.619,1.276 5.918,11.976 17.158,18.859 C -90.781,0.456 -77.302,0 -77.302,0 Z"
             style="fill:#727879;fill-opacity:1;fill-rule:nonzero;stroke:none;stroke-width:5.5583;stroke-linejoin:round;stroke-miterlimit:4;stroke-dasharray:none;stroke-opacity:1"
             id="path90-4-7-0-3-9-4-43-5-7-6-7"
             inkscape:connector-curvature="0" />
        </g>
        <g
           id="g92-2-6-7-5-5-3-4-7-5-4-2"
           transform="matrix(0.29621271,0,0,-0.29621271,-423.79513,21.162868)"
           style="fill:#727879;fill-opacity:1;stroke:none;stroke-width:5.5583;stroke-linejoin:round;stroke-miterlimit:4;stroke-dasharray:none;stroke-opacity:1">
          <path
             d="m 0,0 -7.431,-15.265 -111.177,-76.04 h 73.612 l -10.324,-22.481 c 0,0 -5.145,-11.485 -17.135,-18.773 -11.942,-7.262 -25.422,-6.746 -25.422,-6.746 h -102.38 l 22.576,48 h -0.309 l 110.69,76 h -71.741 l 22.028,48 h 95.631 c 0,0 12.429,0.037 19.776,-10.12 C 5.692,12.513 0,0 0,0"
             style="fill:#727879;fill-opacity:1;fill-rule:nonzero;stroke:none;stroke-width:5.5583;stroke-linejoin:round;stroke-miterlimit:4;stroke-dasharray:none;stroke-opacity:1"
             id="path94-7-1-2-5-0-2-74-2-1-9-8"
             inkscape:connector-curvature="0" />
        </g>
      </g>
    </g>
  </g>
</svg>
